<svg width="72" height="103" viewBox="0 0 72 103" fill="none" xmlns="http://www.w3.org/2000/svg">
<path d="M45.1066 49V5.90909H56.6929V13.4276H57.1417C57.9272 10.7531 59.2458 8.73319 61.0973 7.3679C62.9489 5.9839 65.081 5.2919 67.4937 5.2919C68.0921 5.2919 68.7374 5.32931 69.4294 5.40412C70.1214 5.47893 70.7292 5.58179 71.2529 5.71271V16.3171C70.6918 16.1488 69.9156 15.9992 68.9244 15.8683C67.9332 15.7373 67.0261 15.6719 66.2032 15.6719C64.4451 15.6719 62.8741 16.0553 61.4901 16.8221C60.1248 17.5702 59.0401 18.6175 58.2358 19.9641C57.4503 21.3107 57.0576 22.863 57.0576 24.6211V49H45.1066Z" fill="#00246B"/>
<path d="M6.7642 37.4545H18.9006L31.7188 68.7273H32.2642L45.0824 37.4545H57.2188V84H47.6733V53.7045H47.2869L35.2415 83.7727H28.7415L16.696 53.5909H16.3097V84H6.7642V37.4545Z" fill="#00246B"/>
</svg>
