<svg width="214" height="103" viewBox="0 0 214 103" fill="none" xmlns="http://www.w3.org/2000/svg">
<path d="M45.1066 49V5.90909H56.6929V13.4276H57.1417C57.9272 10.7531 59.2458 8.73319 61.0973 7.3679C62.9489 5.9839 65.081 5.2919 67.4937 5.2919C68.0921 5.2919 68.7374 5.32931 69.4294 5.40412C70.1214 5.47893 70.7292 5.58179 71.2529 5.71271V16.3171C70.6918 16.1488 69.9156 15.9992 68.9244 15.8683C67.9332 15.7373 67.0261 15.6719 66.2032 15.6719C64.4451 15.6719 62.8741 16.0553 61.4901 16.8221C60.1248 17.5702 59.0401 18.6175 58.2358 19.9641C57.4503 21.3107 57.0576 22.863 57.0576 24.6211V49H45.1066Z" fill="#00246B"/>
<path d="M6.7642 37.4545H18.9006L31.7188 68.7273H32.2642L45.0824 37.4545H57.2188V84H47.6733V53.7045H47.2869L35.2415 83.7727H28.7415L16.696 53.5909H16.3097V84H6.7642V37.4545Z" fill="#00246B"/>
<path d="M77.8892 37.4545V84H68.2074V37.4545H77.8892ZM85.6449 84V49.0909H95.3267V84H85.6449ZM90.5085 44.5909C89.0691 44.5909 87.8343 44.1136 86.804 43.1591C85.7888 42.1894 85.2812 41.0303 85.2812 39.6818C85.2812 38.3485 85.7888 37.2045 86.804 36.25C87.8343 35.2803 89.0691 34.7955 90.5085 34.7955C91.9479 34.7955 93.1752 35.2803 94.1903 36.25C95.2206 37.2045 95.7358 38.3485 95.7358 39.6818C95.7358 41.0303 95.2206 42.1894 94.1903 43.1591C93.1752 44.1136 91.9479 44.5909 90.5085 44.5909ZM118.855 84.6818C115.325 84.6818 112.272 83.9318 109.696 82.4318C107.135 80.9167 105.158 78.8106 103.764 76.1136C102.37 73.4015 101.673 70.2576 101.673 66.6818C101.673 63.0758 102.37 59.9242 103.764 57.2273C105.158 54.5152 107.135 52.4091 109.696 50.9091C112.272 49.3939 115.325 48.6364 118.855 48.6364C122.385 48.6364 125.431 49.3939 127.991 50.9091C130.567 52.4091 132.552 54.5152 133.946 57.2273C135.34 59.9242 136.037 63.0758 136.037 66.6818C136.037 70.2576 135.34 73.4015 133.946 76.1136C132.552 78.8106 130.567 80.9167 127.991 82.4318C125.431 83.9318 122.385 84.6818 118.855 84.6818ZM118.901 77.1818C120.507 77.1818 121.848 76.7273 122.923 75.8182C123.999 74.8939 124.81 73.6364 125.355 72.0455C125.916 70.4545 126.196 68.6439 126.196 66.6136C126.196 64.5833 125.916 62.7727 125.355 61.1818C124.81 59.5909 123.999 58.3333 122.923 57.4091C121.848 56.4848 120.507 56.0227 118.901 56.0227C117.279 56.0227 115.916 56.4848 114.81 57.4091C113.719 58.3333 112.893 59.5909 112.332 61.1818C111.787 62.7727 111.514 64.5833 111.514 66.6136C111.514 68.6439 111.787 70.4545 112.332 72.0455C112.893 73.6364 113.719 74.8939 114.81 75.8182C115.916 76.7273 117.279 77.1818 118.901 77.1818ZM171.378 59.0455L162.514 59.5909C162.363 58.8333 162.037 58.1515 161.537 57.5455C161.037 56.9242 160.378 56.4318 159.56 56.0682C158.757 55.6894 157.795 55.5 156.673 55.5C155.173 55.5 153.908 55.8182 152.878 56.4545C151.848 57.0758 151.332 57.9091 151.332 58.9545C151.332 59.7879 151.666 60.4924 152.332 61.0682C152.999 61.6439 154.143 62.1061 155.764 62.4545L162.082 63.7273C165.476 64.4242 168.007 65.5455 169.673 67.0909C171.34 68.6364 172.173 70.6667 172.173 73.1818C172.173 75.4697 171.499 77.4773 170.151 79.2045C168.817 80.9318 166.984 82.2803 164.651 83.25C162.332 84.2045 159.658 84.6818 156.628 84.6818C152.007 84.6818 148.325 83.7197 145.582 81.7955C142.855 79.8561 141.257 77.2197 140.787 73.8864L150.31 73.3864C150.598 74.7955 151.295 75.8712 152.401 76.6136C153.507 77.3409 154.923 77.7045 156.651 77.7045C158.348 77.7045 159.711 77.3788 160.741 76.7273C161.787 76.0606 162.317 75.2045 162.332 74.1591C162.317 73.2803 161.946 72.5606 161.219 72C160.491 71.4242 159.37 70.9848 157.855 70.6818L151.81 69.4773C148.401 68.7955 145.863 67.6136 144.196 65.9318C142.545 64.25 141.719 62.1061 141.719 59.5C141.719 57.2576 142.325 55.3258 143.537 53.7045C144.764 52.0833 146.484 50.8333 148.696 49.9545C150.923 49.0758 153.529 48.6364 156.514 48.6364C160.923 48.6364 164.393 49.5682 166.923 51.4318C169.469 53.2955 170.954 55.8333 171.378 59.0455ZM194.043 84.6818C190.512 84.6818 187.459 83.9318 184.884 82.4318C182.323 80.9167 180.346 78.8106 178.952 76.1136C177.558 73.4015 176.861 70.2576 176.861 66.6818C176.861 63.0758 177.558 59.9242 178.952 57.2273C180.346 54.5152 182.323 52.4091 184.884 50.9091C187.459 49.3939 190.512 48.6364 194.043 48.6364C197.573 48.6364 200.618 49.3939 203.179 50.9091C205.755 52.4091 207.74 54.5152 209.134 57.2273C210.527 59.9242 211.224 63.0758 211.224 66.6818C211.224 70.2576 210.527 73.4015 209.134 76.1136C207.74 78.8106 205.755 80.9167 203.179 82.4318C200.618 83.9318 197.573 84.6818 194.043 84.6818ZM194.088 77.1818C195.694 77.1818 197.035 76.7273 198.111 75.8182C199.187 74.8939 199.997 73.6364 200.543 72.0455C201.103 70.4545 201.384 68.6439 201.384 66.6136C201.384 64.5833 201.103 62.7727 200.543 61.1818C199.997 59.5909 199.187 58.3333 198.111 57.4091C197.035 56.4848 195.694 56.0227 194.088 56.0227C192.467 56.0227 191.103 56.4848 189.997 57.4091C188.906 58.3333 188.08 59.5909 187.52 61.1818C186.974 62.7727 186.702 64.5833 186.702 66.6136C186.702 68.6439 186.974 70.4545 187.52 72.0455C188.08 73.6364 188.906 74.8939 189.997 75.8182C191.103 76.7273 192.467 77.1818 194.088 77.1818Z" fill="#00246B"/>
</svg>
